<svg width="48" height="48" fill="none" xmlns="http://www.w3.org/2000/svg"><g clip-path="url(#clip0)" fill="#FF5A30"><path d="M38.054 2.09c-6.17-.648-11.716 3.843-12.365 10.012l-1.127 10.723a1.406 1.406 0 001.252 1.545l.466.05-1.176 11.188c-.54 5.14 3.203 9.763 8.344 10.303 5.14.54 9.763-3.203 10.303-8.344l1.176-11.188.467.05a1.406 1.406 0 001.545-1.252l1.127-10.723c.648-6.169-3.843-11.716-10.012-12.364zm-.294 2.797c4.627.486 7.995 4.646 7.509 9.273l-.392 3.73-16.783-1.764.392-3.73c.487-4.627 4.647-7.995 9.274-7.509zM27.506 21.72l.294-2.797 16.783 1.764-.294 2.797-16.783-1.764zm13.448 15.553a6.57 6.57 0 01-7.212 5.841 6.57 6.57 0 01-5.84-7.212l1.175-11.189 13.053 1.372-1.176 11.188z"/><path d="M32.171 40.122l3.73.392a1.406 1.406 0 00.293-2.797l-3.729-.392a1.406 1.406 0 00-.294 2.797zM9.947 2.09C3.777 2.738-.713 8.285-.065 14.454l1.127 10.722a1.406 1.406 0 001.545 1.252l.466-.05 1.176 11.19c.54 5.14 5.163 8.883 10.304 8.343 5.141-.54 8.884-5.163 8.344-10.304L21.72 24.42l.466-.05a1.406 1.406 0 001.251-1.545l-1.127-10.722c-.648-6.17-6.195-10.66-12.364-10.012zM3.712 23.484l-.294-2.797L20.2 18.923l.294 2.797-16.782 1.764zM20.099 35.9a6.57 6.57 0 01-5.84 7.213 6.57 6.57 0 01-7.213-5.84L5.87 26.083l13.054-1.371L20.099 35.9zm-.193-19.776L3.124 17.89l-.392-3.73c-.486-4.627 2.882-8.787 7.51-9.273 4.626-.487 8.786 2.882 9.272 7.51l.392 3.728z"/><path d="M12.1 40.513l3.73-.392a1.406 1.406 0 00-.295-2.797l-3.73.392a1.406 1.406 0 10.295 2.797z"/></g><defs><clipPath id="clip0"><path fill="#fff" d="M0 0h48v48H0z"/></clipPath></defs></svg>