<svg width="142" height="24" fill="none" xmlns="http://www.w3.org/2000/svg"><g clip-path="url(#clip0)"><path d="M0 12.109C0 5.454 3.605 1.418 9.503 1.418c4.479 0 8.083 2.727 8.738 6.764.11.436-.218.763-.655.763h-2.84c-.328 0-.546-.218-.655-.545-.546-2.073-2.294-3.382-4.588-3.382-3.168 0-5.134 2.727-5.134 7.09 0 4.364 1.966 7.092 5.243 7.092 2.294 0 3.933-1.2 4.588-3.164.11-.327.328-.545.655-.545h2.84c.437 0 .765.436.656.763-.656 3.928-4.151 6.546-8.739 6.546C3.605 22.8 0 18.654 0 12.109zM26.543 22.255h-3.168c-.328 0-.546-.219-.546-.546V2.836c0-.436.437-.872.874-.872h7.646c4.478 0 7.21 2.509 7.21 6.436 0 2.291-1.093 4.364-2.95 5.455-.437.218-.546.763-.328 1.09l3.386 6.437c.219.327-.109.763-.437.763h-3.604a.6.6 0 01-.546-.327l-3.168-6.545c-.11-.328-.437-.437-.765-.437h-2.512c-.328 0-.546.219-.546.546v6.436c.11.218-.218.437-.546.437zm.655-11.128c0 .328.219.546.546.546h3.277c2.185 0 3.386-1.2 3.386-3.164 0-1.963-1.31-3.163-3.386-3.163h-3.168c-.327 0-.546.218-.546.545v5.236h-.109zM56.254 22.255H44.238a.746.746 0 01-.764-.764V2.727c0-.436.327-.763.764-.763h12.016c.437 0 .764.327.764.763V4.8a.746.746 0 01-.764.764H48.28c-.328 0-.546.218-.546.545v3.71c0 .326.218.545.546.545h7.428c.437 0 .764.327.764.763v1.855a.746.746 0 01-.764.764H48.28c-.328 0-.546.218-.546.545v4.145c0 .328.218.546.546.546h7.974c.437 0 .764.327.764.764v2.072c0 .11-.327.437-.764.437zM73.185 17.346h-6.227c-.327 0-.546.218-.655.436l-1.201 4.036c-.11.327-.328.437-.656.437h-2.84c-.437 0-.764-.437-.655-.873L67.505 2.4c.109-.218.327-.436.655-.436h4.041c.328 0 .547.218.656.436l6.554 18.982c.109.436-.219.873-.656.873h-3.167c-.328 0-.546-.219-.656-.437l-1.201-4.036c0-.218-.328-.436-.546-.436zm-5.353-3.164h4.479c.218 0 .327-.218.327-.437L70.235 6.11h-.218l-2.403 7.636c-.11.219 0 .437.218.437zM86.293 21.491V6.001c0-.328-.219-.546-.547-.546H80.94c-.437 0-.874-.327-.874-.873V2.728c0-.437.328-.873.874-.873h14.856c.436 0 .873.327.873.873v1.854a.861.861 0 01-.873.873h-4.807c-.327 0-.546.218-.546.545v15.6a.746.746 0 01-.764.764h-2.731c-.328-.109-.655-.436-.655-.873zM113.381 22.255h-12.015a.746.746 0 01-.765-.764V2.727c0-.436.328-.763.765-.763h12.015c.437 0 .765.327.765.763V4.8a.746.746 0 01-.765.764h-7.973c-.328 0-.547.218-.547.545v3.71c0 .326.219.545.547.545h7.427c.437 0 .765.327.765.763v1.855a.746.746 0 01-.765.764h-7.427c-.328 0-.547.218-.547.545v4.145c0 .328.219.546.547.546h7.973c.437 0 .765.327.765.764v2.072c0 .11-.328.437-.765.437z" fill="#fff"/><path d="M128.564 10.583l-6.772-8.837a2.158 2.158 0 00-1.529-.654c-.546 0-1.092.218-1.529.654a2.32 2.32 0 000 3.055l5.352 7.2-5.352 7.2a2.32 2.32 0 000 3.054c.437.437.983.655 1.529.655.546 0 1.092-.218 1.529-.655l6.772-8.836c.765-.655.765-1.964 0-2.836zM131.451 10.583l6.772-8.837a2.16 2.16 0 011.53-.654c.546 0 1.092.218 1.529.654a2.32 2.32 0 010 3.055L135.93 12l5.352 7.2a2.32 2.32 0 010 3.054 2.158 2.158 0 01-1.529.655 2.16 2.16 0 01-1.53-.655l-6.772-8.836c-.765-.655-.765-1.964 0-2.836z" fill="#FF5A30"/></g><defs><clipPath id="clip0"><path fill="#fff" d="M0 0h142v24H0z"/></clipPath></defs></svg>