<?xml version="1.0" encoding="utf-8"?><svg viewBox="0 0 53 52" xmlns="http://www.w3.org/2000/svg" xmlns:xlink="http://www.w3.org/1999/xlink"><style>:root>svg{display:none}:root>svg:target{display:block}</style><svg viewBox="0 0 24 24" id="facebook" xmlns="http://www.w3.org/2000/svg"><path d="M17.563 1.005L14.786 1c-3.12 0-5.137 2.125-5.137 5.414v2.497H6.857c-.242 0-.437.2-.437.448v3.617c0 .248.196.449.437.449h2.792v9.126c0 .248.195.449.437.449h3.643a.443.443 0 00.437-.449v-9.126h3.265c.241 0 .436-.2.436-.449l.002-3.617a.456.456 0 00-.128-.317.431.431 0 00-.31-.131h-3.265V6.794c0-1.017.236-1.533 1.525-1.533h1.871c.241 0 .437-.202.437-.45V1.454a.443.443 0 00-.436-.448z"/></svg><svg viewBox="0 0 48 48" id="house" xmlns="http://www.w3.org/2000/svg"><g clip-path="url(#bclip0)"><path d="M28.922 21.094c-1.957 0-3.657.891-4.922 2.58-1.266-1.689-2.965-2.58-4.922-2.58-3.655 0-6.328 3.004-6.328 6.69 0 4.766 4.619 7.76 10.335 12.659a1.402 1.402 0 001.83 0c5.723-4.905 10.335-7.895 10.335-12.659 0-3.683-2.67-6.69-6.328-6.69zM24 37.529c-5.15-4.351-8.438-6.697-8.438-9.745 0-2.21 1.512-3.878 3.516-3.878 2.606 0 3.529 3.06 3.57 3.198a1.407 1.407 0 002.706-.006c.009-.032.924-3.192 3.568-3.192 2.004 0 3.515 1.667 3.515 3.878 0 3.05-3.291 5.398-8.437 9.745z"/><path d="M46.593 45.188h-4.218V23.345l.024.017a1.406 1.406 0 001.944-.299l3.376-4.499a1.41 1.41 0 00-.302-1.984L24.83.272a1.406 1.406 0 00-1.656-.003l-9.111 6.579V4.22c0-.777-.63-1.407-1.407-1.407H7.031c-.776 0-1.406.63-1.406 1.407v8.72L.583 16.58a1.406 1.406 0 00-.301 1.984l3.375 4.499a1.406 1.406 0 001.944.299l.024-.017v21.843H1.406a1.406 1.406 0 100 2.813h45.187a1.406 1.406 0 000-2.813zM8.437 5.626h2.813v3.253l-2.813 2.03V5.626zM5.082 20.274l-1.69-2.252L24 3.142l20.61 14.88-1.69 2.252L24.822 7.298a1.406 1.406 0 00-1.645 0c-.319.23-17.694 12.688-18.096 12.976zm3.356 1.054C18.767 13.92 22.587 11.183 24 10.168c1.91 1.37 7.12 5.107 15.563 11.16v23.86H8.436v-23.86z"/></g><defs><clipPath id="bclip0"><path d="M0 0h48v48H0z"/></clipPath></defs></svg><svg viewBox="0 0 24 24" id="left-arrow" xmlns="http://www.w3.org/2000/svg"><path fill-rule="evenodd" clip-rule="evenodd" d="M9.207 17.207a1 1 0 01-1.414 0l-4.5-4.5a1 1 0 010-1.414l4.5-4.5a1 1 0 011.414 1.414L6.414 11H20a1 1 0 110 2H6.414l2.793 2.793a1 1 0 010 1.414z"/></svg><svg viewBox="0 0 20 20" id="linked" xmlns="http://www.w3.org/2000/svg"><path d="M18.328 18.333l.005-.001v-6.113c0-2.99-.644-5.293-4.14-5.293-1.68 0-2.808.922-3.269 1.796h-.048V7.205H7.56v11.127h3.451v-5.51c0-1.45.275-2.853 2.072-2.853 1.77 0 1.797 1.655 1.797 2.946v5.418h3.447zM1.941 7.206h3.456v11.127H1.94V7.206zM3.667 1.666a2.002 2.002 0 00-2.001 2.001c0 1.105.897 2.02 2.001 2.02 1.105 0 2.002-.915 2.002-2.02a2.003 2.003 0 00-2.002-2.001z"/></svg><svg viewBox="0 0 24 24" id="load-more" xmlns="http://www.w3.org/2000/svg"><path fill-rule="evenodd" clip-rule="evenodd" d="M2.1 2a1 1 0 011 1v4.436A9.999 9.999 0 0112 2c4.355 0 8.058 2.784 9.43 6.667a1 1 0 11-1.885.666A8.004 8.004 0 005.07 8H8.1a1 1 0 110 2h-6a1 1 0 01-1-1V3a1 1 0 011-1zM3.177 14.057a1 1 0 011.276.61A8.004 8.004 0 0018.928 16h-3.03a1 1 0 110-2h6a1 1 0 011 1v6a1 1 0 11-2 0v-4.436a9.999 9.999 0 01-8.9 5.436c-4.356 0-8.059-2.784-9.43-6.667a1 1 0 01.609-1.276z"/></svg><svg viewBox="0 0 24 24" id="mess" xmlns="http://www.w3.org/2000/svg"><path d="M12 2C6.478 2 2 6.145 2 11.259c0 2.913 1.454 5.512 3.726 7.21V22l3.405-1.869c.909.252 1.871.388 2.869.388 5.523 0 10-4.145 10-9.259C22 6.146 17.523 2 12 2zm.994 12.469l-2.546-2.716-4.97 2.716 5.467-5.803 2.609 2.716 4.906-2.716-5.466 5.803z"/></svg><svg fill="none" viewBox="0 0 20 20" id="mute" xmlns="http://www.w3.org/2000/svg"><path fill-rule="evenodd" clip-rule="evenodd" d="M12 15.583c.584.416 1.334.083 1.334-.667v-3.75l-3.084 3.083L12 15.583zM17.25 4.416a.805.805 0 00-1.166 0l-2.75 2.75V5.083c0-.667-.834-1.084-1.334-.667L9.667 6.333c-.333.166-.667.333-1.083.333H6.667C5.75 6.666 5 7.416 5 8.333v3.333c0 .917.75 1.667 1.667 1.667h.5l-2.75 2.75a.806.806 0 000 1.166.806.806 0 001.167 0L17.25 5.583a.805.805 0 000-1.167z" fill="#fff"/></svg><svg fill="none" viewBox="0 0 19 22" id="play" xmlns="http://www.w3.org/2000/svg"><path d="M18.5 10.134a1 1 0 010 1.732L2 21.392a1 1 0 01-1.5-.866V1.474A1 1 0 012 .608l16.5 9.526z" fill="#fff"/></svg><svg viewBox="0 0 16 17" id="reply" xmlns="http://www.w3.org/2000/svg"><path d="M.667 7.828l6.096-6.662v3.975h1.295c4.019 0 7.276 3.247 7.276 7.252v2.106l-.576-.628a10.344 10.344 0 00-7.629-3.355h-.366v3.974L.667 7.828z"/></svg><svg viewBox="0 0 24 24" id="right-arrow" xmlns="http://www.w3.org/2000/svg"><path fill-rule="evenodd" clip-rule="evenodd" d="M14.793 6.793a1 1 0 011.414 0l4.5 4.5a1 1 0 010 1.414l-4.5 4.5a1 1 0 01-1.414-1.414L17.586 13H4a1 1 0 110-2h13.586l-2.793-2.793a1 1 0 010-1.414z"/></svg><svg viewBox="0 0 53 50" id="services-1" xmlns="http://www.w3.org/2000/svg"><path d="M50.977 26.523c.84 0 1.523-.682 1.523-1.523V13.625c0-.841-.682-1.523-1.523-1.523H28.023V2.25c0-.841-.682-1.523-1.523-1.523H10.25c-.841 0-1.523.682-1.523 1.523v9.852H2.023c-.84 0-1.523.682-1.523 1.523V25c0 .841.682 1.523 1.523 1.523h6.704v8.329H2.023c-.84 0-1.523.682-1.523 1.523V47.75c0 .841.682 1.523 1.523 1.523h48.954c.84 0 1.523-.682 1.523-1.523V36.375c0-.841-.682-1.523-1.523-1.523h-6.704v-8.329h6.704zm-1.524-3.046H36.148v-8.329h13.305v8.329zm-16.351 0H19.898v-8.329h13.204v8.329zM11.773 3.773h13.204v8.329H11.773V3.773zM3.547 23.477v-8.329h13.305v8.329H3.547zm8.226 3.046h13.204v8.329H11.773v-8.329zM3.547 37.898h13.305v8.329H3.547v-8.329zm16.351 0h13.204v8.329H19.898v-8.329zm29.555 0v8.329H36.148v-8.329h13.305zm-8.226-3.046H28.023v-8.329h13.204v8.329z"/></svg><svg viewBox="0 0 53 52" id="services-2" xmlns="http://www.w3.org/2000/svg"><g clip-path="url(#lclip0)"><path d="M46.406 3.148a6.097 6.097 0 00-5.276 3.047H2.023C1.183 6.195.5 6.877.5 7.72v39.61c0 .84.682 1.523 1.523 1.523h44.383a6.1 6.1 0 006.094-6.094V9.242a6.1 6.1 0 00-6.094-6.094zm0 42.657H3.546V9.242h36.767v33.516a1.523 1.523 0 003.046 0 3.05 3.05 0 013.047-3.047 3.05 3.05 0 013.047 3.047 3.05 3.05 0 01-3.047 3.047zm3.047-8.323a6.057 6.057 0 00-3.047-.818c-1.109 0-2.15.298-3.047.818V9.242a3.05 3.05 0 013.047-3.047 3.05 3.05 0 013.047 3.047v28.24z"/><path d="M35.64 12.29H8.22c-.842 0-1.524.681-1.524 1.523v27.421c0 .842.682 1.524 1.524 1.524h15.234a1.523 1.523 0 001.524-1.524v-3.047a4.578 4.578 0 013.046-4.309v7.356c0 .842.683 1.524 1.524 1.524h6.094c.841 0 1.523-.682 1.523-1.524V13.812c0-.84-.682-1.523-1.523-1.523zm-1.523 27.42H31.07v-7.616c0-.842-.682-1.524-1.523-1.524-4.2 0-7.617 3.417-7.617 7.617v1.524H9.742v-9.14h6.094v4.57a1.524 1.524 0 003.047 0v-6.094c0-.841-.682-1.524-1.524-1.524H9.742V15.336h9.14v6.094h-4.57a1.523 1.523 0 000 3.047H26.5a1.523 1.523 0 000-3.047h-4.57v-6.094h12.187V39.71z"/></g><defs><clipPath id="lclip0"><path transform="translate(.5)" d="M0 0h52v52H0z"/></clipPath></defs></svg><svg viewBox="0 0 53 52" id="services-3" xmlns="http://www.w3.org/2000/svg"><path d="M49.75 30.95a4.572 4.572 0 00.286-5.005l-6.09-10.65c-1.054-1.825-3.276-2.658-5.258-2.128a4.579 4.579 0 00-2.176-4.954L25.958 2.12a4.574 4.574 0 00-4.695.076A4.572 4.572 0 0017.359 0H5.07C2.55 0 .5 2.05.5 4.57v42.86C.5 49.95 2.55 52 5.07 52h42.86c2.52 0 4.57-2.05 4.57-4.57V35.14a4.576 4.576 0 00-2.75-4.19zM18.883 47.43c0 .84-.684 1.523-1.524 1.523H5.07c-.84 0-1.523-.683-1.523-1.523V33.617h15.336V47.43zm0-16.86H3.547V18.281h15.336v12.29zm0-15.336H3.547V4.57c0-.84.683-1.523 1.523-1.523h12.29c.84 0 1.523.683 1.523 1.523v10.664zM21.93 6.05l.423-.734a1.526 1.526 0 012.082-.558l10.554 6.094c.728.42.978 1.354.557 2.083l-1.76 3.06a1.517 1.517 0 00-.118.203L21.93 36.603V6.05zm0 36.663L36.17 17.958l2.945-1.7c.746-.43 1.77-.17 2.188.555l6.09 10.65c.422.73.176 1.665-.561 2.09L21.93 43.972v-1.258zm27.523 4.717c0 .84-.683 1.523-1.523 1.523H21.668c.162-.458.253-.95.26-1.46l23.967-13.876h2.035c.84 0 1.523.684 1.523 1.524V47.43z"/></svg><svg viewBox="0 0 53 52" id="services-4" xmlns="http://www.w3.org/2000/svg"><path d="M43.36 4.57c0-2.52-2.05-4.57-4.57-4.57H8.32C5.8 0 3.75 2.05 3.75 4.57v9.14c0 2.521 2.05 4.571 4.57 4.571h30.47c2.52 0 4.57-2.05 4.57-4.57v-1.524h1.523c.84 0 1.523.684 1.523 1.524v6.094c0 .84-.683 1.523-1.523 1.523H26.602c-2.52 0-4.57 2.05-4.57 4.57v4.57h-1.524c-.842 0-1.524.683-1.524 1.524v6.011l-1.523 6.192C16.47 48.157 19.464 52 23.555 52c4.092 0 7.083-3.847 6.095-7.8l-1.525-6.197v-6.01c0-.842-.682-1.524-1.523-1.524h-1.524v-4.57c0-.84.684-1.524 1.524-1.524h18.28c2.52 0 4.571-2.05 4.571-4.57V13.71c0-2.52-2.05-4.57-4.57-4.57h-1.524V4.57zM25.077 33.516v3.148h-3.047v-3.148h3.047zm-1.523 15.437a3.234 3.234 0 01-3.137-4.024l1.284-5.218h3.705l1.285 5.223a3.234 3.234 0 01-3.137 4.02zM8.32 3.047h30.47c.839 0 1.523.683 1.523 1.523v1.524h-4.57c-1.481 0-3.375.554-5.567 1.196-2.961.868-6.317 1.85-9.668 1.85-3.267 0-5.57-.954-7.602-1.795-1.554-.643-3.02-1.251-4.586-1.251H6.797V4.57c0-.84.683-1.523 1.523-1.523zM40.312 13.71c0 .84-.683 1.523-1.523 1.523H8.32c-.84 0-1.523-.683-1.523-1.523V9.14H8.32c.96 0 2.045.45 3.42 1.019 2.18.903 4.895 2.027 8.768 2.027 3.788 0 7.523-1.094 10.525-1.972 1.885-.553 3.666-1.074 4.71-1.074h4.57v4.57z"/></svg><svg fill="none" viewBox="0 0 24 24" id="to-top" xmlns="http://www.w3.org/2000/svg"><path fill-rule="evenodd" clip-rule="evenodd" d="M4.293 15.707a1 1 0 010-1.414l7-7a1 1 0 011.414 0l7 7a1 1 0 01-1.414 1.414L12 9.414l-6.293 6.293a1 1 0 01-1.414 0z" fill="#fff"/></svg><svg viewBox="0 0 24 24" id="twitter" xmlns="http://www.w3.org/2000/svg"><path d="M22.5 5.772a8.902 8.902 0 01-2.474.65 4.18 4.18 0 001.894-2.28 8.922 8.922 0 01-2.737 1 4.387 4.387 0 00-3.145-1.302c-2.379 0-4.308 1.847-4.308 4.124 0 .323.038.638.112.94-3.58-.173-6.754-1.815-8.879-4.31a3.962 3.962 0 00-.583 2.073c0 1.431.762 2.694 1.916 3.433a4.455 4.455 0 01-1.95-.518v.052c0 1.997 1.485 3.665 3.454 4.044-.36.093-.741.145-1.135.145a4.31 4.31 0 01-.81-.077c.548 1.64 2.138 2.832 4.023 2.865a8.89 8.89 0 01-5.35 1.763c-.348 0-.69-.02-1.028-.057a12.572 12.572 0 006.603 1.856c7.925 0 12.257-6.285 12.257-11.736l-.015-.534a8.412 8.412 0 002.155-2.13z"/></svg><svg viewBox="0 0 24 24" id="whats" xmlns="http://www.w3.org/2000/svg"><path d="M22 11.742c0 5.381-4.395 9.743-9.818 9.743a9.835 9.835 0 01-4.746-1.212L2 22l1.772-5.227a9.64 9.64 0 01-1.409-5.03C2.363 6.361 6.76 2 12.182 2 17.605 2 22 6.362 22 11.742zm-9.818-8.19c-4.552 0-8.255 3.674-8.255 8.19 0 1.793.584 3.452 1.573 4.803l-1.032 3.042 3.172-1.009a8.25 8.25 0 004.542 1.355c4.551 0 8.255-3.674 8.255-8.19 0-4.517-3.703-8.191-8.255-8.191zm4.958 10.434c-.06-.1-.221-.16-.462-.278-.24-.12-1.424-.698-1.644-.777-.22-.08-.382-.12-.542.12-.16.238-.621.776-.762.935-.14.16-.28.18-.522.06-.24-.119-1.015-.371-1.935-1.185-.715-.633-1.198-1.414-1.339-1.653-.14-.24-.014-.368.106-.487.108-.107.24-.279.361-.418.12-.14.16-.24.24-.399.081-.16.041-.298-.02-.418-.06-.12-.541-1.295-.742-1.773-.2-.478-.4-.398-.541-.398-.14 0-.3-.02-.461-.02-.16 0-.422.06-.642.299-.22.239-.842.816-.842 1.991 0 1.175.862 2.31.982 2.47.12.159 1.665 2.649 4.111 3.605 2.447.956 2.447.637 2.889.597.44-.04 1.423-.578 1.625-1.135.2-.558.2-1.036.14-1.136z"/></svg><svg viewBox="0 0 24 24" id="youtube" xmlns="http://www.w3.org/2000/svg"><path fill-rule="evenodd" clip-rule="evenodd" d="M21.39 4.114a3.007 3.007 0 012.116 2.115c.514 1.878.494 5.792.494 5.792s0 3.895-.494 5.773a3.007 3.007 0 01-2.116 2.115c-1.878.495-9.39.495-9.39.495s-7.493 0-9.39-.514a3.007 3.007 0 01-2.116-2.116C0 15.916 0 12.001 0 12.001S0 8.107.494 6.23A3.068 3.068 0 012.61 4.094C4.488 3.6 12 3.6 12 3.6s7.513 0 9.391.514zm-5.535 7.888L9.608 15.6V8.404l6.247 3.598z"/></svg></svg>